<svg width="67.438721" height="12.335419" viewBox="0 0 67.4387 12.3354" fill="none" xmlns="http://www.w3.org/2000/svg" xmlns:xlink="http://www.w3.org/1999/xlink">
	<desc>
			Created with Pixso.
	</desc>
	<defs/>
	<path id="并集" d="M18.793 7.4101L10.4836 3.06421L10.4836 0L18.793 4.37445L18.793 7.4101ZM8.29541 0.00012207L8.29541 3.06586L3.31348 5.84726L0.406982 4.32645L8.29541 0.00012207ZM8.30933 9.27094L0 4.92505L0 7.96069L8.30933 12.3351L8.30933 9.27094ZM10.4978 12.3354L10.4978 9.26971L15.4797 6.48828L18.3865 8.00912L10.4978 12.3354Z" clip-rule="evenodd" fill="#2222FF" fill-opacity="1.000000" fill-rule="evenodd"/>
	<path id="并集" d="M18.793 7.4101L10.4836 3.06421L10.4836 0L18.793 4.37445L18.793 7.4101ZM8.29541 0.00012207L8.29541 3.06586L3.31348 5.84726L0.406982 4.32645L8.29541 0.00012207ZM8.30933 9.27094L0 4.92505L0 7.96069L8.30933 12.3351L8.30933 9.27094ZM10.4978 12.3354L10.4978 9.26971L15.4797 6.48828L18.3865 8.00912L10.4978 12.3354Z" clip-rule="evenodd" fill="#2222FF" fill-opacity="1.000000" fill-rule="evenodd"/>
	<path id="并集" d="M23.6606 9.1181L22.366 9.1181L24.3799 3.21887L26.0193 3.21887L28.0332 9.1181L26.7385 9.1181L25.2036 4.43073L24.3889 6.89359L25.5784 6.89359L25.9285 7.96222L24.0444 7.96222L23.6606 9.1181ZM28.8215 3.21887L29.9492 3.21887L32.4983 6.98199L32.4983 3.21887L33.7214 3.21887L33.7214 9.1181L32.5791 9.1181L30.0444 5.45908L30.0444 9.1181L28.8215 9.1181L28.8215 3.21887ZM34.5769 4.28751L34.5769 3.21887L39.4363 3.21887L39.4363 4.28751L37.6221 4.28751L37.6221 9.1181L36.3911 9.1181L36.3911 4.28751L34.5769 4.28751ZM40.5037 9.1181L39.209 9.1181L41.2241 3.21887L42.8623 3.21887L44.8774 9.1181L43.5815 9.1181L42.0466 4.43073L41.2319 6.89359L42.4214 6.89359L42.7715 7.96222L40.8875 7.96222L40.5037 9.1181ZM45.656 9.1181L45.656 3.21887L46.887 3.21887L46.887 8.0495L49.7805 8.0495L49.7805 9.1181L45.656 9.1181ZM50.7957 3.21887L53.2339 3.21887C53.7185 3.21887 54.1223 3.314 54.4443 3.50534C54.7676 3.69669 55.01 3.94284 55.1714 4.24387C55.3342 4.54373 55.415 4.85593 55.415 5.18045C55.415 5.51501 55.3342 5.83279 55.1714 6.13269C55.0088 6.43256 54.7664 6.67874 54.4443 6.87009C54.1223 7.0603 53.7185 7.15656 53.2339 7.15656L52.0266 7.15656L52.0266 9.1181L50.7957 9.1181L50.7957 3.21887ZM57.4556 3.21887L57.4556 5.57095L59.7578 5.57095L59.7578 3.21887L60.9888 3.21887L60.9888 9.1181L59.7578 9.1181L59.7578 6.63846L57.4556 6.63846L57.4556 9.1181L56.2246 9.1181L56.2246 3.21887L57.4556 3.21887ZM65.4246 3.21887L67.4385 9.1181L66.1438 9.1181L64.6089 4.43073L63.7932 6.89359L64.9836 6.89359L65.3337 7.96222L63.4497 7.96222L63.0662 9.1181L61.7712 9.1181L63.7852 3.21887L65.4246 3.21887ZM54.0698 4.75729C54.1416 4.89606 54.1775 5.03928 54.1775 5.18811C54.1775 5.3414 54.1416 5.48688 54.0698 5.62228C53.998 5.75766 53.8926 5.86957 53.7546 5.95685C53.6155 6.04413 53.4426 6.0889 53.2351 6.0889L52.0278 6.0889L52.0278 4.29517L53.2351 4.29517C53.4426 4.29517 53.6167 4.33768 53.7546 4.42273C53.8926 4.50778 53.998 4.61966 54.0698 4.75729Z" clip-rule="evenodd" fill="#000000" fill-opacity="1.000000" fill-rule="evenodd"/>
</svg>
