<svg xmlns="http://www.w3.org/2000/svg" width="848" height="261" fill="none"><g clip-path="url(#a)"><path fill="#fff" fill-opacity=".8" d="M47.109 193.955c-3.36 0-6.109-2.749-6.109-6.109V90.109C41 86.749 43.749 84 47.109 84h158.823c3.36 0 6.109 2.749 6.109 6.109v97.737c0 3.36-2.749 6.109-6.109 6.109H47.109z"/><path fill="#272928" d="M206.041 90.543v97.738H47.217V90.543h158.824zm0-12.217H47.217C40.497 78.326 35 83.824 35 90.543v97.738c0 6.719 5.498 12.217 12.217 12.217h158.824c6.719 0 12.217-5.498 12.217-12.217V90.543c0-6.78-5.436-12.217-12.217-12.217z"/><path fill="#9EFEDD" d="M65.543 176.063c-3.36 0-6.109-2.748-6.109-6.108V72.217c0-3.36 2.75-6.108 6.11-6.108h158.823c3.36 0 6.108 2.749 6.108 6.108v97.738c0 3.36-2.748 6.108-6.108 6.108H65.543z"/><path fill="#272928" d="M224.367 72.217v97.738H65.543V72.217h158.824zm0-12.217H65.543c-6.72 0-12.217 5.498-12.217 12.217v97.738c0 6.719 5.498 12.217 12.217 12.217h158.824c6.719 0 12.217-5.498 12.217-12.217V72.217c0-6.78-5.437-12.217-12.217-12.217z"/><path fill="#6CD7B2" d="M120.521 139.412h-18.326a9.15 9.15 0 0 1-9.163-9.163 9.15 9.15 0 0 1 9.163-9.163h18.326a9.15 9.15 0 0 1 9.162 9.163 9.15 9.15 0 0 1-9.162 9.163zm91.629 0h-18.326a9.151 9.151 0 0 1-9.163-9.163 9.151 9.151 0 0 1 9.163-9.163h18.326a9.151 9.151 0 0 1 9.163 9.163 9.151 9.151 0 0 1-9.163 9.163z"/><path fill="#FF7BAC" d="M120.52 133.303a3.025 3.025 0 0 1-3.054-3.054V99.706a3.025 3.025 0 0 1 3.054-3.054 3.025 3.025 0 0 1 3.055 3.054v30.543a3.063 3.063 0 0 1-3.055 3.054z"/><path fill="#272928" d="M120.52 90.543a9.15 9.15 0 0 0-9.162 9.163v30.543a9.15 9.15 0 0 0 9.162 9.163 9.15 9.15 0 0 0 9.163-9.163V99.706a9.15 9.15 0 0 0-9.163-9.163z"/><path fill="#FF7BAC" d="M193.824 133.303a3.025 3.025 0 0 1-3.055-3.054V99.706a3.025 3.025 0 0 1 3.055-3.054 3.025 3.025 0 0 1 3.054 3.054v30.543c0 1.649-1.344 3.054-3.054 3.054z"/><path fill="#272928" d="M193.824 90.543a9.15 9.15 0 0 0-9.163 9.163v30.543a9.151 9.151 0 0 0 9.163 9.163 9.151 9.151 0 0 0 9.163-9.163V99.706a9.15 9.15 0 0 0-9.163-9.163zm141.031 38.41c-2.936-1.609-6.642-3.077-11.117-4.475-.21-.07-.35-.07-.49-.14s-.349-.14-.559-.14c-.28-.07-.49-.14-.769-.28-.28-.07-.49-.14-.769-.21-3.217-1.048-5.664-1.957-7.482-2.727-1.818-.769-3.286-1.887-4.545-3.286-1.259-1.398-1.818-3.146-1.818-5.384v-3.006c0-2.518.909-4.545 2.797-6.014 1.678-1.328 4.055-2.027 7.062-2.167 2.587-.07 6.293 1.118 8.181 2.797.629.559 1.189 1.118 1.678 1.818 2.307 3.006 6.293 4.125 9.719 2.517l.629-.28c4.266-2.028 5.804-7.272 3.357-11.327a75.758 75.758 0 0 0-1.678-2.448c-2.238-2.866-5.105-4.964-8.461-6.362-3.356-1.399-7.272-2.098-11.677-2.098-5.873 0-10.838.979-14.963 2.867-4.126 1.957-7.202 4.754-9.37 8.39-2.167 3.706-3.216 8.111-3.216 13.216v2.447c0 5.454 1.119 9.789 3.286 13.075 2.168 3.286 4.825 5.664 7.901 7.202 3.077 1.538 7.063 3.077 11.957 4.545l.769.21c.07.07.14.07.21.07.07 0 .21.07.35.14 3.006.909 5.384 1.748 7.271 2.517 1.818.769 3.357 1.818 4.475 3.076 1.119 1.329 1.748 2.937 1.748 4.965v3.915c0 2.797-.978 4.965-2.936 6.503-1.958 1.538-4.685 2.307-8.251 2.307-3.426 0-6.293-.909-8.67-2.796a12.036 12.036 0 0 1-2.308-2.308c-2.447-3.076-6.642-4.195-10.278-2.587-4.895 2.168-6.713 8.251-3.706 12.656l1.258 1.678c2.448 2.937 5.594 5.174 9.44 6.643 3.846 1.468 8.251 2.237 13.355 2.237 5.873 0 10.908-.979 15.103-2.867 4.195-1.957 7.412-4.754 9.649-8.39 2.238-3.706 3.287-8.111 3.287-13.215v-3.636c0-5.175-.979-9.37-3.007-12.516-2.028-3.147-4.475-5.524-7.412-7.132zm52.442-15.174c-3.496-1.748-7.692-2.587-12.586-2.587-4.895 0-9.09.839-12.586 2.587-3.496 1.748-6.153 4.266-7.971 7.622-1.818 3.356-2.727 7.342-2.727 12.096v20.907c0 4.755.909 8.81 2.727 12.166 1.818 3.356 4.475 5.944 7.971 7.692 3.496 1.748 7.691 2.657 12.586 2.657 4.894 0 9.09-.909 12.586-2.657 3.496-1.748 6.153-4.336 7.971-7.622 1.818-3.356 2.727-7.342 2.727-12.096v-21.047c0-4.685-.909-8.74-2.727-12.096-1.818-3.356-4.475-5.874-7.971-7.622zm-5.175 40.135c0 2.518-.629 4.545-1.957 5.944-1.259 1.398-3.077 2.097-5.454 2.097-2.378 0-4.196-.699-5.454-2.097-1.259-1.399-1.888-3.356-1.888-5.944v-19.927c0-2.517.629-4.475 1.958-5.804 1.258-1.398 3.076-2.097 5.454-2.097 2.307 0 4.125.699 5.454 2.027 1.258 1.399 1.957 3.357 1.957 5.874v19.927h-.07zm40.415-25.311c1.469-1.678 3.496-2.517 6.083-2.517 2.028 0 3.706.629 4.965 1.887.21.21.489.49.699.77 2.098 2.796 5.804 3.845 9.09 2.727 5.104-1.749 7.202-7.832 4.195-12.307-.07-.07-.14-.209-.21-.279-1.818-2.657-4.335-4.615-7.411-5.804-3.077-1.258-6.853-1.888-11.188-1.888-5.104 0-9.509.909-13.215 2.797-3.636 1.888-6.433 4.615-8.391 8.181-1.957 3.566-2.866 7.901-2.866 12.866v18.249c0 4.965.979 9.23 2.866 12.726 1.958 3.566 4.755 6.223 8.391 8.111 3.636 1.818 8.041 2.797 13.215 2.797 4.405 0 8.181-.63 11.258-1.818 3.076-1.189 5.523-3.077 7.341-5.664l.07-.07c3.077-4.405.979-10.558-4.125-12.306l-.14-.07c-3.286-1.189-6.922 0-9.16 2.657-.139.21-.279.35-.489.489-1.259 1.259-2.867 1.818-4.965 1.818-2.657 0-4.684-.839-6.083-2.447-1.468-1.608-2.167-3.915-2.167-6.852v-16.991c0-3.077.699-5.454 2.237-7.062zm40.904-41.953h-.139a7.967 7.967 0 0 0-7.971 7.97 7.967 7.967 0 0 0 7.971 7.972h.139a7.968 7.968 0 0 0 7.972-7.971 7.968 7.968 0 0 0-7.972-7.971zm0 25.521h-.139a7.967 7.967 0 0 0-7.971 7.971v47.897a7.967 7.967 0 0 0 7.971 7.971h.139a7.968 7.968 0 0 0 7.972-7.971v-47.897a7.968 7.968 0 0 0-7.972-7.971zm50.973 1.538c-3.426-1.678-7.551-2.517-12.306-2.517-5.594 0-10.278 1.259-14.054 3.776-.07 0-.07.07-.14.07-5.314 3.566-4.335 11.677 1.608 14.124 1.818.769 3.916.35 5.384-.909.56-.489 1.119-.839 1.748-1.258 1.609-.84 3.357-1.259 5.244-1.259 2.588 0 4.615.629 6.084 1.888 1.468 1.258 2.167 3.006 2.167 5.314v5.104h-9.929c-7.272 0-12.725 1.678-16.431 5.104-3.706 3.427-5.524 8.391-5.524 14.894 0 6.293 1.468 10.977 4.405 14.194 2.937 3.216 7.272 4.825 13.145 4.825 2.797 0 5.384-.49 7.622-1.399 2.307-.909 4.125-2.307 5.524-4.195.489-.63.839-1.259 1.188-2.028.07 3.706 3.147 6.713 6.853 6.713h1.118c3.776 0 6.853-3.077 6.853-6.853v-36.499c0-4.475-.909-8.391-2.727-11.537-1.818-3.426-4.405-5.873-7.832-7.552zm-6.782 48.456c-1.678 1.119-4.195 1.678-7.482 1.678-2.377 0-4.125-.489-5.314-1.468-1.188-.979-1.748-2.447-1.748-4.405 0-2.517.63-4.405 1.958-5.594 1.259-1.258 3.216-1.888 5.664-1.888h9.509v6.783c-.07 2.097-.909 3.775-2.587 4.894zm41.394-2.936c-.769-.84-1.189-1.958-1.189-3.427V94.901c0-4.405-3.426-8.181-7.831-8.251a7.955 7.955 0 0 0-8.111 7.97v64.469c0 5.384 1.398 9.509 4.195 12.446 2.797 2.936 6.713 4.405 11.677 4.405h12.866c.559 0 1.048-.49 1.048-1.049v-13.425c0-.559-.489-1.049-1.048-1.049h-8.251c-1.468 0-2.587-.419-3.356-1.188zm74.746 1.328h-12.166V94.901c0-4.405-3.426-8.181-7.832-8.251a7.954 7.954 0 0 0-8.11 7.97v79.712c0 .909.769 1.678 1.678 1.678h26.78c4.335 0 7.761-3.566 7.691-7.831-.14-4.266-3.776-7.622-8.041-7.622zm46.568-46.848c-3.426-1.678-7.552-2.517-12.306-2.517-5.594 0-10.279 1.259-14.055 3.776-.069 0-.069.07-.139.07-5.314 3.566-4.336 11.677 1.608 14.124 1.818.769 3.915.35 5.384-.909.559-.489 1.119-.839 1.748-1.258 1.608-.84 3.356-1.259 5.244-1.259 2.587 0 4.685.629 6.083 1.888 1.469 1.258 2.168 3.006 2.168 5.314v5.104h-9.929c-7.272 0-12.726 1.678-16.432 5.104-3.706 3.427-5.524 8.391-5.524 14.894 0 6.293 1.469 10.977 4.405 14.194 2.937 3.216 7.272 4.825 13.146 4.825 2.797 0 5.384-.49 7.621-1.399 2.308-.909 4.126-2.307 5.524-4.195.49-.63.839-1.259 1.189-2.028a6.76 6.76 0 0 0 6.782 6.643h1.189c3.776 0 6.782-3.077 6.782-6.783v-36.569c0-4.475-.909-8.391-2.727-11.537-1.748-3.356-4.335-5.803-7.761-7.482zm-6.782 48.456c-1.679 1.119-4.196 1.678-7.482 1.678-2.377 0-4.125-.489-5.314-1.468s-1.748-2.447-1.748-4.405c0-2.517.629-4.405 1.958-5.594 1.258-1.258 3.216-1.888 5.663-1.888h9.51v6.783c-.07 2.097-.909 3.775-2.587 4.894zm61.81-49.994h-.139a7.113 7.113 0 0 0-6.853 5.244l-8.74 32.654-9.859-32.654c-.909-3.006-3.636-5.244-6.852-5.244-4.895-.07-8.321 4.685-6.853 9.37l17.131 52.441-2.028 7.482c-.559 2.027-1.328 4.545-2.447 5.314h-1.888c-3.985 0-7.132 3.286-7.132 7.202 0 4.405 3.357 8.18 7.762 8.53 2.866.21 5.034-.769 6.712-1.958.49-.349.979-.769 1.468-1.188l1.469-1.329c3.846-3.636 6.503-12.166 7.551-15.732l.909-3.077 16.712-57.965c1.258-4.545-2.168-9.09-6.923-9.09zm48.107 2.308c-3.497-2.168-7.692-3.287-12.586-3.287-5.035 0-9.37.979-12.936 3.007-3.566 1.958-6.293 4.894-8.181 8.6-1.888 3.776-2.797 8.321-2.797 13.635v16.362c0 5.034.979 9.369 2.937 12.935 1.958 3.636 4.755 6.363 8.461 8.251 3.636 1.888 8.111 2.867 13.285 2.867 5.873 0 10.628-1.329 14.334-3.916 1.119-.769 2.167-1.748 3.076-2.797 3.357-3.845 1.748-9.859-3.006-11.677l-.56-.209c-2.797-1.049-5.803-.21-7.901 1.957-.28.28-.559.56-.909.839-1.468 1.119-3.286 1.679-5.524 1.679-2.936 0-5.174-.84-6.782-2.518-1.608-1.678-2.377-4.055-2.377-7.132v-2.797h20.836a11.25 11.25 0 0 0 11.258-11.257c0-5.873-.909-10.908-2.727-15.103-1.818-4.125-4.475-7.272-7.901-9.439zm-4.405 24.472h-16.992v-3.146c0-3.217.77-5.734 2.308-7.552 1.538-1.748 3.706-2.657 6.433-2.657 2.447 0 4.405.769 5.943 2.377 1.538 1.609 2.308 3.706 2.308 6.433v4.545zm57.825-24.333c-.35-.209-.699-.349-1.049-.489a10.06 10.06 0 0 0-3.566-.629c-3.426 0-6.503 1.049-9.37 3.216-2.237 1.678-4.125 3.846-5.663 6.503v-2.727a8.296 8.296 0 0 0-8.321-8.321 8.296 8.296 0 0 0-8.321 8.321v47.197a8.296 8.296 0 0 0 8.321 8.321 8.296 8.296 0 0 0 8.321-8.321v-25.731c0-3.846.979-6.852 2.936-9.02 1.958-2.168 4.685-3.286 8.111-3.286 1.119 0 2.168.07 3.147.279 1.398.28 2.797-.419 3.286-1.818l3.356-10.348c.35-1.119-.069-2.517-1.188-3.147z"/></g><defs><clipPath id="a"><path fill="#fff" d="M0 0h848v261H0z"/></clipPath></defs></svg>