<svg width="66" height="68" viewBox="0 0 66 68" fill="none" xmlns="http://www.w3.org/2000/svg">
<path fill-rule="evenodd" clip-rule="evenodd" d="M1.82276 31.2822C-0.0204929 33.2172 0.053882 36.2801 1.98888 38.1233L6.4815 42.4029C7.01731 40.3874 8.61286 38.722 10.7828 38.1996C11.3285 38.0683 11.8747 38.0178 12.4089 38.0406L18.8543 21.2547C18.0313 20.4441 17.4175 19.4008 17.1272 18.195C16.8838 17.1839 16.895 16.1711 17.1196 15.224L1.82276 31.2822ZM22.7296 23.071C23.4217 23.1387 24.1368 23.0938 24.8511 22.9219C25.4951 22.7668 26.0928 22.5195 26.6335 22.1972L42.3586 37.8108C42.3203 38.197 42.345 38.5962 42.441 38.9948C42.9008 40.9049 44.8219 42.0806 46.732 41.6208C47.6995 41.3879 48.4786 40.7801 48.9522 39.9887L64.4361 36.2616C64.845 36.8154 65.3381 37.2952 65.892 37.6868L38.6108 66.326C36.7676 68.2609 33.7047 68.3353 31.7697 66.4921L13.9327 49.5008C16.8447 48.5796 18.5888 45.5477 17.863 42.5326C17.6016 41.4463 17.0537 40.504 16.3188 39.7665L22.7296 23.071ZM63.1922 32.1703C63.2631 30.5843 63.9254 29.0967 65.009 27.9851L37.0326 1.33527C35.0976 -0.507983 32.0348 -0.433608 30.1915 1.50139L21.5775 10.5442C21.6687 10.5179 21.7609 10.4936 21.8541 10.4711C25.2922 9.64354 28.7503 11.7598 29.5779 15.198C29.8848 16.4729 29.7869 17.7505 29.3669 18.8957L45.2488 34.6649C46.4678 34.437 47.6724 34.8642 48.4791 35.7119L63.1922 32.1703Z" fill="url(#paint0_linear_28_2)" fill-opacity="0.79"/>
<defs>
<linearGradient id="paint0_linear_28_2" x1="4.1584" y1="18.4294" x2="58.1114" y2="53.3899" gradientUnits="userSpaceOnUse">
<stop stop-color="#B72AB2"/>
<stop offset="1" stop-color="#FA5FF5"/>
</linearGradient>
</defs>
</svg>
