<svg width="286" height="331" viewBox="0 0 286 331" fill="none" xmlns="http://www.w3.org/2000/svg">
<path d="M143 330.24L0 247.68V82.56L143 0L286 82.56V247.68L143 330.24ZM12.86 240.25L143 315.39L273.14 240.25V89.98L143 14.85L12.86 89.98V240.25Z" fill="#5EEF00"/>
<path d="M146.21 328.38H139.78L3.20999 249.53L0.859985 240.75L137.43 4.20999H148.56L285.13 240.76L282.78 249.54L146.21 328.39V328.38ZM15.2 241.61L142.99 315.39L270.78 241.61L143 20.28L15.21 241.62L15.2 241.61Z" fill="#5EEF00"/>
<path d="M188.76 250.4H97.71L92.14 247.19L46.62 168.34V161.91L92.14 83.06L97.71 79.85H188.76L194.33 83.06L239.85 161.91V168.34L194.33 247.19L188.76 250.4ZM101.42 237.54H185.04L226.85 165.12L185.04 92.7H101.42L59.61 165.12L101.42 237.54Z" fill="#5EEF00"/>
<path d="M179.52 213.51H105.53L99.81 203.75L143.85 166.25L99.52 126.22L105.53 116.72H178.93L188.16 132.56L177.07 139.06L171.71 129.58H122.3L157.92 161.62L157.78 171.31L123.08 200.66H171.77L177.89 190.98L189.05 197.36L179.52 213.51Z" fill="#5EEF00"/>
<path d="M137.43 326.03L0.859985 89.48L3.20999 80.7L139.79 1.85001H146.22L282.79 80.7L285.14 89.48L148.57 326.03H137.44H137.43ZM15.21 88.62L143 309.96L270.79 88.62L143 14.84L15.21 88.62Z" fill="#5EEF00"/>
</svg>
