<svg width="169" height="36" viewBox="0 0 169 36" fill="none" xmlns="http://www.w3.org/2000/svg">
<path d="M129.103 4.79975C129.103 4.14522 129.321 3.49069 129.866 2.94526C130.303 2.39982 130.957 2.18164 131.721 2.18164C132.484 2.18164 133.139 2.39982 133.575 2.94526C134.121 3.49069 134.339 4.03613 134.339 4.79975C134.339 5.56336 134.121 6.21789 133.575 6.65424C133.03 7.19968 132.484 7.41785 131.721 7.41785C130.957 7.41785 130.412 7.19968 129.866 6.65424C129.321 6.1088 129.103 5.45427 129.103 4.79975ZM129.648 11.0178L133.684 10.2541V26.3991H129.648V11.0178Z" fill="white"/>
<path d="M125.502 9.81836H121.466V18.9817C121.466 20.8362 119.939 22.4725 117.975 22.4725C116.121 22.4725 114.484 20.9453 114.484 18.9817V9.81836H110.448V18.9817C110.448 23.1271 113.83 26.5088 117.975 26.5088C122.121 26.5088 125.502 23.1271 125.502 18.9817V9.81836Z" fill="white"/>
<path d="M70.8281 17.2363V26.3997H74.8644V17.2363C74.8644 15.3818 76.3916 13.8546 78.2461 13.8546C80.1006 13.8546 81.7369 15.3818 81.7369 17.3454V26.5088H85.7731V17.3454C85.7731 13.2001 82.3914 9.81836 78.2461 9.81836C74.1008 9.81836 70.8281 13.091 70.8281 17.2363Z" fill="white"/>
<path d="M144.702 22.6903C144.484 22.6903 144.266 22.6903 144.047 22.6903C143.175 22.6903 142.52 22.4721 142.302 22.0357C142.084 21.5994 141.866 20.9449 141.866 20.2903V0L137.938 0.763614V20.2903C137.938 21.0539 138.048 21.8176 138.157 22.4721C138.266 23.1266 138.593 23.7811 138.92 24.3266C139.357 24.872 139.793 25.3084 140.557 25.5265C141.211 25.8538 142.084 25.9629 143.175 25.9629C143.611 25.9629 144.047 25.9629 144.593 25.8538V22.6903H144.702Z" fill="white"/>
<path d="M168.156 22.6903C167.283 22.6903 166.629 22.4721 166.41 22.0357C166.192 21.5994 165.974 20.9449 165.974 20.2903V0L162.047 0.763615V10.2543C161.61 10.0361 161.174 9.8179 160.629 9.59973C159.538 9.16337 158.447 8.9452 157.138 8.9452C155.938 8.9452 154.738 9.16337 153.647 9.59973C152.556 10.0361 151.683 10.5815 150.811 11.3451C150.047 12.1087 149.393 12.9814 148.956 14.0723C148.52 15.1632 148.302 16.2541 148.302 17.5631C148.302 18.8722 148.52 19.9631 148.956 21.0539C149.393 22.1448 150.047 23.0175 150.811 23.7811C151.574 24.5448 152.556 25.0902 153.647 25.5265C154.738 25.9629 155.829 26.1811 157.138 26.1811C158.338 26.1811 159.538 25.9629 160.629 25.5265C160.956 25.4175 161.283 25.1993 161.61 25.0902L161.501 24.9811C161.065 24.4357 160.847 23.8902 160.738 23.1266C160.629 22.5812 160.52 22.0357 160.52 21.3812C160.192 21.7085 159.756 22.0357 159.32 22.2539C158.774 22.5812 158.011 22.6903 157.247 22.6903C156.483 22.6903 155.72 22.5812 155.174 22.2539C154.629 21.9266 154.083 21.4903 153.756 21.0539C153.32 20.5085 153.102 19.9631 152.883 19.4176C152.665 18.7631 152.556 18.1086 152.556 17.5631C152.556 16.9086 152.665 16.3632 152.883 15.7086C153.102 15.0541 153.32 14.5087 153.756 14.0723C154.192 13.5269 154.629 13.1996 155.174 12.8724C155.72 12.5451 156.483 12.436 157.247 12.436C158.011 12.436 158.774 12.5451 159.32 12.8724C159.865 13.1996 160.41 13.5269 160.738 14.0723C161.065 14.6178 161.392 15.1632 161.61 15.7086C161.72 15.9268 161.72 16.3632 161.72 16.6904V20.2903C161.72 21.0539 161.829 21.8176 161.938 22.4721C162.047 23.1266 162.374 23.7811 162.701 24.3266C163.138 24.872 163.574 25.3084 164.338 25.5265C164.992 25.8538 165.865 25.9629 166.956 25.9629C167.283 25.9629 167.828 25.9629 168.265 25.8538V22.6903C168.374 22.6903 168.265 22.6903 168.156 22.6903Z" fill="white"/>
<path d="M27.2744 13.3092C28.1471 13.3092 28.8016 13.5273 29.0198 13.9637C29.238 14.4 29.4561 15.0546 29.4561 15.7091V35.9994L33.3833 35.2358V25.7452C33.8197 25.9634 34.256 26.1815 34.8015 26.3997C35.8923 26.8361 36.9832 27.0542 38.2923 27.0542C39.4922 27.0542 40.6922 26.8361 41.7831 26.3997C42.8739 25.9634 43.7467 25.4179 44.6194 24.6543C45.383 23.8907 46.0375 23.018 46.4738 21.9271C46.9102 20.8362 47.1284 19.7453 47.1284 18.4363C47.1284 17.1272 46.9102 16.0364 46.4738 14.9455C46.0375 13.8546 45.383 12.9819 44.6194 12.2183C43.8557 11.4547 42.8739 10.9092 41.7831 10.4729C40.6922 10.0365 39.6013 9.81836 38.2923 9.81836C37.0923 9.81836 35.8923 10.0365 34.8015 10.4729C34.4742 10.582 34.1469 10.8001 33.8197 10.9092L33.9287 11.0183C34.3651 11.5638 34.5833 12.1092 34.6924 12.8728C34.8014 13.4183 34.9105 13.9637 34.9105 14.6182C35.2378 14.291 35.6742 13.9637 36.1105 13.7455C36.6559 13.4183 37.4196 13.3092 38.1832 13.3092C38.9468 13.3092 39.7104 13.4183 40.2558 13.7455C40.8013 14.0728 41.3467 14.5091 41.674 14.9455C42.1103 15.4909 42.3285 16.0364 42.5467 16.5818C42.7649 17.2363 42.8739 17.8909 42.8739 18.4363C42.8739 19.0908 42.7649 19.6363 42.5467 20.2908C42.3285 20.9453 42.1103 21.4908 41.674 21.9271C41.2376 22.4725 40.8013 22.7998 40.2558 23.1271C39.7104 23.4543 38.9468 23.5634 38.1832 23.5634C37.4196 23.5634 36.6559 23.4543 36.1105 23.1271C35.5651 22.7998 35.0196 22.4725 34.6924 21.9271C34.3651 21.3817 34.0378 20.8362 33.8197 20.2908C33.7106 20.0726 33.7106 19.6363 33.7106 19.309V15.7091C33.7106 14.9455 33.6015 14.1819 33.4924 13.5273C33.3833 12.8728 33.056 12.2183 32.7288 11.6729C32.2924 11.1274 31.8561 10.6911 31.0925 10.4729C30.4379 10.1456 29.5652 10.0365 28.4744 10.0365C28.1471 10.0365 27.6017 10.0365 27.1653 10.1456V13.3092C27.0562 13.3092 27.1653 13.3092 27.2744 13.3092Z" fill="white"/>
<path d="M66.6553 14.7273C66.219 13.6364 65.6735 12.7637 65.019 12.0001C64.3645 11.2365 63.4918 10.6911 62.51 10.3638C61.5282 10.0365 60.5464 9.81836 59.3464 9.81836C58.1465 9.81836 57.0556 10.0365 55.9647 10.4729C54.8739 10.9092 54.0011 11.4547 53.2375 12.2183C52.4739 12.9819 51.8194 13.8546 51.383 14.9455C50.9467 16.0364 50.7285 17.2363 50.7285 18.5454C50.7285 19.8544 50.9467 21.0544 51.383 22.1453C51.8194 23.2362 52.4739 24.1089 53.2375 24.7634C54.0011 25.527 54.8739 26.0724 55.9647 26.3997C57.0556 26.727 58.1465 26.9451 59.4555 26.9451C61.5282 26.9451 63.71 26.3997 65.6735 24.6543L63.4918 22.0362C63.1645 22.3635 62.1827 23.018 61.9646 23.1271C61.31 23.4543 60.4373 23.6725 59.4555 23.6725C58.9101 23.6725 58.2556 23.5634 57.8192 23.3452C57.2738 23.1271 56.8374 22.9089 56.4011 22.4725C55.9647 22.1453 55.6375 21.7089 55.4193 21.2726C55.2011 20.8362 54.9829 20.2908 54.9829 19.6363C54.8738 18.109 54.9829 16.6909 54.9829 16.6909C55.092 15.4909 55.5284 14.6182 56.4011 13.8546C57.2738 13.091 58.2556 12.7637 59.4555 12.7637C60.1101 12.7637 60.6555 12.8728 61.2009 13.091C61.6373 13.3092 62.0736 13.6364 62.4009 13.9637C62.7282 14.291 62.9463 14.7273 63.0554 15.1637C63.1645 15.6 63.2736 16.1455 63.2736 16.6909H56.292V19.6363H67.2008C67.2008 19.4181 67.2008 19.309 67.2008 19.0908C67.2008 18.8726 67.2008 18.7636 67.2008 18.5454C67.3099 17.1272 67.0917 15.8182 66.6553 14.7273Z" fill="white"/>
<path d="M104.72 14.7233C103.263 13.043 98.6707 13.155 98.6707 13.155H97.1024H95.4221V16.9637H99.3428C100.351 16.9637 102.479 16.9637 102.479 19.6522C102.479 22.6767 100.127 22.6767 99.7909 22.6767H93.7418V16.9637V13.155V7.7781H97.5505C97.8865 7.7781 98.1106 7.89012 98.4466 8.00214C98.6707 8.11416 99.0067 8.3382 99.1187 8.56224C99.2308 8.78628 99.4548 9.12233 99.5668 9.34637C99.6788 9.68243 99.7909 10.0185 99.7909 10.3545C99.7909 10.6906 99.6788 11.0267 99.5668 11.3627C99.5668 11.3627 99.5668 11.4747 99.4548 11.4747C102.031 11.5868 103.151 12.0348 103.936 12.3709C104.048 11.9228 104.16 11.2507 104.16 10.1305C104.16 8.89829 103.824 3.85742 97.4384 3.85742H89.373V26.4853H99.7909C100.799 26.4853 101.695 26.3733 102.479 26.1493C103.375 25.9252 104.048 25.5892 104.72 25.0291C105.392 24.469 105.84 23.7969 106.288 23.0127C106.624 22.1166 106.848 21.1084 106.848 19.8762C106.848 18.3079 106.288 16.1796 104.72 14.7233Z" fill="white"/>
<path fillRule="evenodd" clipRule="evenodd" d="M4.71289 6.66648C9.05221 2.87725 15.6386 2.95469 19.8992 7.01096C24.4054 11.3009 24.5803 18.4534 20.281 22.9703C16.134 27.327 9.31658 27.6408 4.77965 23.7674L8.03481 20.348C10.6771 22.4362 14.5091 22.2066 16.8723 19.7245C19.3771 17.0929 19.285 12.9245 16.6534 10.4197C14.2781 8.15787 10.6758 8.01768 8.14296 9.93232L4.71289 6.66648Z" fill="white"/>
<path d="M7.24494 11.7622L3.58257 8.10156L0.013758 11.6403L3.67613 15.3022L0 18.9492L3.55506 22.5016L7.23118 18.8546L10.8 15.3159L7.24494 11.7622Z" fill="#01DB83"/>
</svg>
