<svg width="141" height="48" viewBox="0 0 141 48" fill="none" xmlns="http://www.w3.org/2000/svg">
<path d="M103.637 46.6172C103.7 46.998 103.649 47.2773 103.485 47.455C103.32 47.62 103.103 47.7406 102.838 47.8167C102.571 47.8803 102.285 47.912 101.98 47.912C101.689 47.8993 101.442 47.8993 101.239 47.912C100.998 47.9247 100.712 47.9437 100.382 47.9691C100.052 47.9818 99.7285 47.9881 99.4109 47.9881C99.1074 47.9881 98.8276 47.9627 98.5737 47.912C98.3198 47.8612 98.1486 47.7723 98.06 47.6454C97.9962 47.5566 97.9525 47.3534 97.9266 47.0361C97.9136 46.7188 97.9077 46.3315 97.9077 45.8745C97.9077 45.4048 97.9136 44.8844 97.9266 44.3131C97.9525 43.7419 97.9773 43.1643 98.0033 42.5804C98.0281 41.9838 98.047 41.4062 98.06 40.8477C98.086 40.2891 98.0978 39.7814 98.0978 39.3243C98.1108 38.6515 98.1167 37.9851 98.1167 37.325C98.1167 36.6649 98.1427 35.9985 98.1934 35.3257C98.1934 35.2367 98.1934 35.1225 98.1934 34.9828C98.1934 34.8306 98.2064 34.6845 98.2312 34.5449C98.269 34.4053 98.3328 34.2848 98.4213 34.1832C98.5111 34.0816 98.6504 34.0308 98.8405 34.0308C99.2078 34.0308 99.4817 34.1133 99.6589 34.2784C99.849 34.4434 99.9187 34.7988 99.8679 35.3447C99.8431 35.6112 99.8171 35.8334 99.7923 36.0111C99.7793 36.1888 99.7663 36.3476 99.7545 36.4872C99.7545 36.6141 99.7474 36.7347 99.7345 36.8489C99.7226 36.9632 99.7156 37.1028 99.7156 37.2679C99.6908 38.4484 99.6778 39.6226 99.6778 40.7905C99.6778 41.9584 99.6459 43.1326 99.5821 44.3131C99.5573 44.9479 99.6719 45.3858 99.9258 45.627C100.18 45.8555 100.604 45.9444 101.201 45.8936C101.391 45.8809 101.625 45.8555 101.905 45.8175C102.184 45.7793 102.45 45.7729 102.704 45.7983C102.958 45.8237 103.173 45.8936 103.351 46.0078C103.529 46.122 103.624 46.3252 103.637 46.6172Z" fill="white"/>
<path d="M95.2912 38.6581C95.342 39.5213 95.329 40.3908 95.2534 41.2668C95.1897 42.1299 95.107 42.9932 95.0055 43.8564L94.9299 44.5038C94.8921 44.8593 94.8283 45.24 94.7398 45.6463C94.65 46.0525 94.5296 46.3699 94.3772 46.5984C94.2249 46.9031 94.0608 47.1442 93.8825 47.322C93.7053 47.4997 93.5081 47.6393 93.2932 47.7409C93.0771 47.8424 92.8492 47.9122 92.6071 47.9504C92.3662 47.9758 92.1064 47.9884 91.8278 47.9884C91.6624 47.9884 91.4841 47.9694 91.294 47.9312C90.9645 47.8551 90.6977 47.7345 90.4946 47.5695C90.2914 47.3918 90.1273 47.1886 89.9998 46.9601C89.8734 46.719 89.7778 46.4587 89.7152 46.1795C89.6514 45.8875 89.6065 45.5955 89.5817 45.3036C89.531 44.8973 89.4991 44.4974 89.4861 44.1039C89.4731 43.7104 89.4613 43.3169 89.4483 42.9234C89.4353 42.7457 89.4294 42.5806 89.4294 42.4284C89.4294 42.2633 89.4223 42.0983 89.4105 41.9332C89.4223 41.6794 89.4294 41.4381 89.4294 41.2096C89.4412 40.9812 89.4483 40.7527 89.4483 40.5242C89.4731 39.9149 89.4991 39.3309 89.5239 38.7723C89.5499 38.2012 89.5818 37.6298 89.6195 37.0586C89.6443 36.7667 89.6951 36.4747 89.7719 36.1828C89.8474 35.8907 89.949 35.6178 90.0765 35.364C90.2915 34.9196 90.5713 34.5959 90.9138 34.3929C91.2692 34.177 91.6494 34.0564 92.0557 34.031C92.4241 34.0057 92.8102 34.0438 93.2165 34.1454C93.6227 34.2468 93.9462 34.4881 94.1871 34.8688C94.5933 35.5416 94.8661 36.2082 95.0055 36.8682C95.1578 37.5284 95.2534 38.125 95.2912 38.6581ZM92.0368 46.3699C92.2139 46.3699 92.3544 46.3509 92.4548 46.3127C92.5563 46.2747 92.6331 46.2303 92.6839 46.1795C92.7347 46.116 92.7724 46.0525 92.7984 45.989C92.8232 45.9128 92.8492 45.843 92.874 45.7796C93.0771 45.1449 93.2353 44.4658 93.3499 43.7422C93.4762 43.0186 93.5589 42.3014 93.5979 41.5905C93.6486 40.8669 93.6605 40.1751 93.6357 39.515C93.6097 38.8422 93.5471 38.2456 93.4455 37.7251C93.3558 37.2047 93.2294 36.7857 93.0641 36.4683C92.9118 36.1383 92.7288 35.9543 92.5127 35.9161C92.4749 35.8907 92.3544 35.8907 92.1513 35.9161C91.96 35.9415 91.8018 35.9859 91.6754 36.0494C91.6117 36.0748 91.5479 36.1256 91.4841 36.2018C91.4215 36.278 91.3637 36.3668 91.3129 36.4683C91.2751 36.5573 91.2373 36.6525 91.1995 36.754C91.1736 36.8556 91.1606 36.9444 91.1606 37.0206C91.1228 37.7822 91.072 38.5375 91.0094 39.2865C90.9586 40.0227 90.9268 40.7591 90.9138 41.4953C90.9008 41.7492 90.9079 42.0094 90.9327 42.276C90.9704 42.5298 90.9893 42.7837 90.9893 43.0376C90.9893 43.1772 90.9964 43.3106 91.0094 43.4375C91.0212 43.5645 91.0342 43.6977 91.0472 43.8374C91.0472 44.1421 91.072 44.4404 91.1228 44.7323C91.1736 45.0116 91.2314 45.2908 91.294 45.5701C91.32 45.6971 91.4026 45.8494 91.542 46.0272C91.6943 46.1921 91.8585 46.3063 92.0368 46.3699Z" fill="white"/>
<path d="M80.897 37.0402C80.9097 36.6721 80.9795 36.323 81.1064 35.9929C81.246 35.6628 81.4236 35.3645 81.6393 35.098C81.8677 34.8314 82.1278 34.6157 82.4196 34.4506C82.7115 34.2728 83.0224 34.1523 83.3523 34.0888C84.0374 33.9745 84.6401 34.038 85.1604 34.2792C85.6934 34.5077 86.1244 34.9266 86.455 35.536C86.5944 35.7898 86.677 36.0818 86.7018 36.4118C86.7396 36.7419 86.7278 37.053 86.664 37.3449C86.651 37.4211 86.6073 37.5035 86.5306 37.5924C86.455 37.6812 86.3594 37.7638 86.2448 37.84C86.1433 37.9034 86.0358 37.9605 85.9217 38.0113C85.8075 38.0495 85.6997 38.0749 85.5982 38.0875C85.4714 38.1129 85.3318 38.1065 85.1794 38.0685C85.0399 38.0303 84.9003 37.9352 84.7607 37.7828C84.6847 37.694 84.6529 37.5607 84.6655 37.3829C84.6909 37.1926 84.6973 37.0084 84.6847 36.8308C84.6847 36.6531 84.6339 36.5007 84.5323 36.3738C84.4308 36.2468 84.2215 36.196 83.9042 36.2214C83.4855 36.2722 83.1873 36.4309 83.0097 36.6975C82.8447 36.9514 82.7432 37.237 82.7052 37.5543C82.6671 37.859 82.6671 38.1509 82.7052 38.4302C82.7432 38.7095 82.7622 38.8936 82.7622 38.9824C82.7622 39.4649 82.7496 39.9218 82.7242 40.3534C82.6988 40.7723 82.6671 41.1912 82.629 41.6101C82.6036 42.0164 82.5846 42.4353 82.572 42.8669C82.5592 43.2858 82.5592 43.7301 82.572 44.1998C82.572 44.441 82.6226 44.7012 82.7242 44.9805C82.8257 45.2598 82.9653 45.4502 83.1429 45.5517C83.2571 45.6152 83.3903 45.6851 83.5426 45.7611C83.6949 45.8247 83.8534 45.8754 84.0184 45.9135C84.1834 45.9389 84.342 45.9389 84.4943 45.9135C84.6465 45.8881 84.7797 45.8183 84.8939 45.7041C85.0082 45.5898 85.0653 45.3804 85.0653 45.0757C85.0653 44.771 85.0589 44.46 85.0462 44.1427C85.0462 43.8253 85.0653 43.5523 85.1033 43.3238C85.1541 43.0827 85.281 42.9747 85.484 43.0001C85.8901 43.0509 86.1822 43.1716 86.3594 43.362C86.5377 43.5523 86.6262 43.7174 86.6262 43.857C86.6262 44.1236 86.6262 44.4029 86.6262 44.6948C86.6392 44.9869 86.6321 45.2724 86.6073 45.5517C86.5814 45.831 86.5306 46.0976 86.455 46.3515C86.3912 46.6054 86.2897 46.8275 86.1503 47.0179C85.9091 47.3226 85.6236 47.551 85.2936 47.7034C84.9638 47.8557 84.6085 47.9509 84.2278 47.989C83.8598 48.0144 83.4855 47.9954 83.1049 47.9319C82.7368 47.8684 82.388 47.7795 82.0581 47.6653C81.7661 47.5638 81.5314 47.4178 81.3538 47.2274C81.1762 47.0243 81.0366 46.802 80.9351 46.5609C80.8463 46.3071 80.7891 46.0342 80.7638 45.7421C80.7511 45.4374 80.7575 45.1328 80.7828 44.8282C80.7955 44.625 80.8019 44.3267 80.8019 43.9332C80.8145 43.527 80.8209 43.0763 80.8209 42.5812C80.8336 42.0735 80.8399 41.5467 80.8399 41.0008C80.8526 40.4423 80.8589 39.9091 80.8589 39.4013C80.8589 38.8936 80.8589 38.4302 80.8589 38.0113C80.8716 37.5924 80.8843 37.2687 80.897 37.0402Z" fill="white"/>
<path d="M78.147 38.6581C78.1978 39.5213 78.1852 40.3908 78.109 41.2668C78.0456 42.1299 77.9631 42.9932 77.8616 43.8564L77.7854 44.5038C77.7473 44.8593 77.6839 45.24 77.5951 45.6463C77.5063 46.0525 77.3857 46.3699 77.2335 46.5984C77.0812 46.9031 76.9162 47.1442 76.7386 47.322C76.561 47.4997 76.3643 47.6393 76.1485 47.7409C75.9329 47.8424 75.7045 47.9122 75.4634 47.9504C75.2223 47.9758 74.9622 47.9884 74.6831 47.9884C74.5181 47.9884 74.3404 47.9694 74.1502 47.9312C73.8202 47.8551 73.5537 47.7345 73.3507 47.5695C73.1477 47.3918 72.9827 47.1886 72.8558 46.9601C72.729 46.719 72.6338 46.4587 72.5704 46.1795C72.5069 45.8875 72.4625 45.5955 72.4371 45.3036C72.3864 44.8973 72.3546 44.4974 72.3419 44.1039C72.3292 43.7104 72.3166 43.3169 72.3039 42.9234C72.2912 42.7457 72.2849 42.5806 72.2849 42.4284C72.2849 42.2633 72.2785 42.0983 72.2658 41.9332C72.2785 41.6794 72.2849 41.4381 72.2849 41.2096C72.2975 40.9812 72.3039 40.7527 72.3039 40.5242C72.3293 39.9149 72.3546 39.3309 72.38 38.7723C72.4054 38.2012 72.4371 37.6298 72.4752 37.0586C72.5006 36.7667 72.5513 36.4747 72.6274 36.1828C72.7036 35.8907 72.805 35.6178 72.932 35.364C73.1477 34.9196 73.4269 34.5959 73.7694 34.3929C74.1248 34.177 74.5054 34.0564 74.9115 34.031C75.2794 34.0057 75.6664 34.0438 76.0725 34.1454C76.4785 34.2468 76.802 34.4881 77.0432 34.8688C77.4491 35.5416 77.722 36.2082 77.8616 36.8682C78.0138 37.5284 78.109 38.125 78.147 38.6581ZM74.8924 46.3699C75.07 46.3699 75.2096 46.3509 75.3111 46.3127C75.4126 46.2747 75.4888 46.2303 75.5396 46.1795C75.5902 46.116 75.6284 46.0525 75.6537 45.989C75.6791 45.9128 75.7044 45.843 75.7298 45.7796C75.9329 45.1449 76.0915 44.4658 76.2057 43.7422C76.3325 43.0186 76.415 42.3014 76.4531 41.5905C76.5038 40.8669 76.5165 40.1751 76.4912 39.515C76.4658 38.8422 76.4023 38.2456 76.3009 37.7251C76.2121 37.2047 76.0851 36.7857 75.9201 36.4683C75.7679 36.1383 75.584 35.9543 75.3682 35.9161C75.3302 35.8907 75.2096 35.8907 75.0066 35.9161C74.8163 35.9415 74.6577 35.9859 74.5307 36.0494C74.4673 36.0748 74.4039 36.1256 74.3404 36.2018C74.277 36.278 74.2199 36.3668 74.1692 36.4683C74.131 36.5573 74.093 36.6525 74.055 36.754C74.0296 36.8556 74.0168 36.9444 74.0168 37.0206C73.9788 37.7822 73.928 38.5375 73.8646 39.2865C73.8138 40.0227 73.7821 40.7591 73.7694 41.4953C73.7567 41.7492 73.7631 42.0094 73.7884 42.276C73.8265 42.5298 73.8456 42.7837 73.8456 43.0376C73.8456 43.1772 73.8519 43.3106 73.8646 43.4375C73.8772 43.5645 73.89 43.6977 73.9026 43.8374C73.9026 44.1421 73.928 44.4404 73.9788 44.7323C74.0296 45.0116 74.0866 45.2908 74.1502 45.5701C74.1754 45.6971 74.258 45.8494 74.3975 46.0272C74.5498 46.1921 74.7147 46.3063 74.8924 46.3699Z" fill="white"/>
<path d="M69.0182 34.0879C69.107 34.1006 69.2276 34.1197 69.3798 34.1451C69.5322 34.1704 69.6844 34.234 69.8367 34.3354C69.9889 34.4243 70.1221 34.5639 70.2363 34.7544C70.3505 34.9322 70.4077 35.1733 70.4077 35.4779C70.4077 35.6938 70.3759 35.8651 70.3125 35.9921C70.2491 36.1063 70.1665 36.1952 70.0651 36.2586C69.9763 36.3222 69.8811 36.3666 69.7796 36.392C69.6908 36.4046 69.621 36.4174 69.5702 36.43H69.475L69.437 36.449H68.276C67.6796 36.4364 67.3179 36.4935 67.1911 36.6205C67.1149 36.6967 67.0705 36.8363 67.0578 37.0394C67.0451 37.2298 67.0451 37.4709 67.0578 37.763V38.6388V38.715C67.0324 39.629 67.0071 40.5366 66.9817 41.4379C66.9563 42.3392 66.9309 43.2342 66.9056 44.1228L66.8484 46.0078V46.1412C66.8484 46.2173 66.8484 46.2935 66.8484 46.3697C66.8484 46.4331 66.8421 46.4965 66.8294 46.5601V46.8456V46.9028C66.8421 47.0171 66.8484 47.1567 66.8484 47.3217C66.8484 47.474 66.785 47.6137 66.6582 47.7406C66.5312 47.9057 66.3219 47.9881 66.0301 47.9881C65.6747 47.9881 65.402 47.8865 65.2116 47.6835C65.0466 47.5184 64.9515 47.3408 64.9261 47.1503C64.9007 46.9472 64.888 46.7948 64.888 46.6934C64.9134 45.5382 64.9388 44.3957 64.9642 43.2658C64.9896 42.1234 65.0149 40.9936 65.0403 39.8766L65.0784 38.4484V38.0295C65.0784 37.8518 65.0784 37.674 65.0784 37.4963C65.0784 37.3187 65.091 37.1536 65.1164 37.0012C65.1418 36.7981 65.1482 36.6713 65.1354 36.6205C65.1354 36.557 65.11 36.4935 65.0594 36.43L65.0212 36.373C64.9959 36.3476 64.9578 36.3284 64.9071 36.3158C64.869 36.3031 64.7611 36.2968 64.5835 36.2968H64.4693C64.3678 36.2968 64.2282 36.2904 64.0506 36.2777C63.8856 36.265 63.708 36.2396 63.5176 36.2015C63.3273 36.1635 63.1369 36.1063 62.9467 36.0301C62.769 35.954 62.6231 35.8524 62.5088 35.7254C62.3312 35.5351 62.2551 35.3065 62.2805 35.04C62.3058 34.7607 62.401 34.5513 62.566 34.4116C62.7436 34.272 62.9403 34.1768 63.1561 34.126C63.3844 34.0625 63.6064 34.0308 63.8222 34.0308C64.0506 34.0308 64.2282 34.0371 64.3551 34.0499H64.4883C64.6153 34.0499 64.7992 34.0499 65.0403 34.0499C65.294 34.0499 65.5415 34.0562 65.7826 34.0689C66.0237 34.0689 66.233 34.0753 66.4107 34.0879C66.601 34.0879 66.6962 34.0879 66.6962 34.0879C66.7342 34.0879 66.8231 34.0879 66.9626 34.0879C67.1022 34.0879 67.2671 34.0879 67.4575 34.0879C67.6605 34.0879 67.8826 34.0879 68.1236 34.0879C68.3648 34.0753 68.6059 34.0689 68.8469 34.0689H68.8659H68.9041H68.9992L69.0182 34.0879Z" fill="white"/>
<path d="M60.4256 38.6581C60.4764 39.5213 60.4636 40.3908 60.3875 41.2668C60.3241 42.1299 60.2416 42.9932 60.1401 43.8564L60.0639 44.5038C60.0259 44.8593 59.9625 45.24 59.8737 45.6463C59.7848 46.0525 59.6643 46.3699 59.512 46.5984C59.3598 46.9031 59.1948 47.1442 59.0172 47.322C58.8395 47.4997 58.6429 47.6393 58.4271 47.7409C58.2114 47.8424 57.983 47.9122 57.7419 47.9504C57.5008 47.9758 57.2407 47.9884 56.9615 47.9884C56.7966 47.9884 56.619 47.9694 56.4286 47.9312C56.0987 47.8551 55.8323 47.7345 55.6293 47.5695C55.4262 47.3918 55.2612 47.1886 55.1344 46.9601C55.0074 46.719 54.9123 46.4587 54.8489 46.1795C54.7854 45.8875 54.741 45.5955 54.7157 45.3036C54.6649 44.8973 54.6332 44.4974 54.6205 44.1039C54.6078 43.7104 54.5951 43.3169 54.5825 42.9234C54.5697 42.7457 54.5634 42.5806 54.5634 42.4284C54.5634 42.2633 54.5571 42.0983 54.5443 41.9332C54.5571 41.6794 54.5634 41.4381 54.5634 41.2096C54.5761 40.9812 54.5825 40.7527 54.5825 40.5242C54.6078 39.9149 54.6332 39.3309 54.6585 38.7723C54.6839 38.2012 54.7157 37.6298 54.7537 37.0586C54.7791 36.7667 54.8299 36.4747 54.906 36.1828C54.9821 35.8907 55.0836 35.6178 55.2106 35.364C55.4262 34.9196 55.7053 34.5959 56.048 34.3929C56.4032 34.177 56.7839 34.0564 57.1899 34.031C57.5579 34.0057 57.945 34.0438 58.351 34.1454C58.7571 34.2468 59.0806 34.4881 59.3216 34.8688C59.7277 35.5416 60.0005 36.2082 60.1401 36.8682C60.2924 37.5284 60.3875 38.125 60.4256 38.6581ZM57.1709 46.3699C57.3485 46.3699 57.4881 46.3509 57.5896 46.3127C57.6912 46.2747 57.7673 46.2303 57.818 46.1795C57.8688 46.116 57.9068 46.0525 57.9322 45.989C57.9576 45.9128 57.983 45.843 58.0084 45.7796C58.2114 45.1449 58.37 44.4658 58.4842 43.7422C58.6111 43.0186 58.6935 42.3014 58.7317 41.5905C58.7824 40.8669 58.7951 40.1751 58.7697 39.515C58.7443 38.8422 58.6809 38.2456 58.5793 37.7251C58.4905 37.2047 58.3637 36.7857 58.1987 36.4683C58.0464 36.1383 57.8624 35.9543 57.6468 35.9161C57.6087 35.8907 57.4881 35.8907 57.2851 35.9161C57.0948 35.9415 56.9362 35.9859 56.8093 36.0494C56.7458 36.0748 56.6824 36.1256 56.619 36.2018C56.5556 36.278 56.4984 36.3668 56.4476 36.4683C56.4096 36.5573 56.3716 36.6525 56.3334 36.754C56.3081 36.8556 56.2954 36.9444 56.2954 37.0206C56.2573 37.7822 56.2066 38.5375 56.1431 39.2865C56.0924 40.0227 56.0607 40.7591 56.048 41.4953C56.0353 41.7492 56.0417 42.0094 56.067 42.276C56.1051 42.5298 56.1241 42.7837 56.1241 43.0376C56.1241 43.1772 56.1305 43.3106 56.1431 43.4375C56.1558 43.5645 56.1685 43.6977 56.1812 43.8374C56.1812 44.1421 56.2066 44.4404 56.2573 44.7323C56.3081 45.0116 56.3652 45.2908 56.4286 45.5701C56.454 45.6971 56.5364 45.8494 56.676 46.0272C56.8283 46.1921 56.9933 46.3063 57.1709 46.3699Z" fill="white"/>
<path d="M52.3749 47.2265C52.3877 47.328 52.3877 47.4296 52.3749 47.5312C52.3749 47.62 52.3369 47.6962 52.2607 47.7597C52.1465 47.912 51.8104 47.9881 51.252 47.9881C51.1125 47.9881 51.0045 47.9501 50.9285 47.8739C50.8523 47.7851 50.7952 47.6835 50.7571 47.5692C50.7191 47.4424 50.6937 47.3154 50.681 47.1884C50.6683 47.0487 50.6556 46.9218 50.6429 46.8076C50.6429 46.706 50.6366 46.6362 50.6239 46.5981C50.5732 46.2427 50.478 45.8999 50.3384 45.5699C50.1988 45.2398 50.0339 44.9352 49.8435 44.656C49.6533 44.3767 49.4439 44.1354 49.2154 43.9324C48.9998 43.7165 48.784 43.5451 48.5683 43.4182C48.1369 43.1897 47.7816 43.1326 47.5024 43.2468L47.4834 43.2658C47.458 43.2912 47.439 43.361 47.4264 43.4753C47.4264 43.5769 47.4264 43.7039 47.4264 43.8562C47.4264 44.0084 47.4326 44.1735 47.4454 44.3513C47.458 44.5163 47.4708 44.675 47.4834 44.8273C47.5088 45.1319 47.5342 45.4366 47.5596 45.7413C47.585 46.046 47.585 46.3125 47.5596 46.541C47.5468 46.5918 47.5406 46.6426 47.5406 46.6934C47.5532 46.7314 47.5596 46.7758 47.5596 46.8266C47.5722 46.9663 47.566 47.1185 47.5406 47.2836C47.5278 47.4486 47.4708 47.5883 47.3692 47.7025C47.2043 47.8675 46.9759 47.9501 46.6841 47.9501C46.3795 47.9755 46.1384 47.8993 45.9608 47.7215C45.8085 47.582 45.7197 47.4042 45.6943 47.1884C45.6817 46.9726 45.6753 46.7886 45.6753 46.6362V46.5029C45.6626 45.0431 45.6689 43.5896 45.6943 42.1425C45.7197 40.6826 45.7451 39.2354 45.7705 37.801C45.7831 37.4075 45.7895 37.0204 45.7895 36.6395C45.8022 36.246 45.8085 35.8524 45.8085 35.4589C45.8212 35.1416 45.8783 34.894 45.9798 34.7163C46.094 34.5259 46.2336 34.3799 46.3986 34.2784C46.5635 34.1768 46.7411 34.1133 46.9315 34.0879C47.1218 34.0499 47.3058 34.0308 47.4834 34.0308C47.9402 34.0308 48.3907 34.107 48.8348 34.2594C49.2789 34.4116 49.6913 34.6275 50.0719 34.9068C50.4653 35.186 50.8079 35.5097 51.0997 35.8778C51.4043 36.246 51.6263 36.6459 51.7658 37.0774C51.9308 37.5725 52.0006 38.0613 51.9752 38.5436C51.9626 39.0133 51.8801 39.4639 51.7278 39.8956C51.5882 40.3145 51.3916 40.708 51.1378 41.0761C50.8967 41.4443 50.6239 41.7616 50.3194 42.0282C50.3194 42.1425 50.351 42.2885 50.4146 42.4661C50.4906 42.6312 50.5795 42.8216 50.681 43.0373C50.7952 43.2405 50.9157 43.4563 51.0427 43.6847C51.1822 43.9133 51.3155 44.1418 51.4423 44.3703C51.5565 44.5607 51.6644 44.7448 51.7658 44.9225C51.8674 45.1001 51.9626 45.2716 52.0514 45.4366C52.1021 45.5254 52.1465 45.6461 52.1846 45.7983C52.2227 45.938 52.2544 46.0904 52.2797 46.2554C52.3179 46.4205 52.3433 46.5854 52.3559 46.7504C52.3685 46.9155 52.3749 47.0615 52.3749 47.1884V47.2265ZM47.7499 35.9921C47.7118 36.0555 47.6738 36.2079 47.6356 36.449C47.6104 36.6903 47.5912 36.9759 47.5786 37.3059C47.566 37.6233 47.5596 37.966 47.5596 38.3342C47.5596 38.7023 47.566 39.0514 47.5786 39.3815C47.5912 39.7115 47.6104 39.9971 47.6356 40.2383C47.661 40.4795 47.6928 40.6382 47.7308 40.7143C48.0607 40.7397 48.3653 40.708 48.6444 40.6192C48.9362 40.5176 49.1964 40.3589 49.4248 40.1431C49.6785 39.9273 49.8689 39.6671 49.9958 39.3624C50.1354 39.045 50.2052 38.7213 50.2052 38.3913C50.2052 38.2009 50.1608 38.0105 50.0719 37.82C49.9958 37.617 49.8879 37.4265 49.7483 37.2488C49.6215 37.0584 49.4692 36.8807 49.2916 36.7157C49.114 36.5506 48.9362 36.411 48.7586 36.2968C48.3145 36.0175 47.9783 35.9159 47.7499 35.9921Z" fill="white"/>
<path d="M42.3942 36.1448C42.8129 36.7922 43.0667 37.4776 43.1556 38.2012C43.2444 38.9248 43.1556 39.6356 42.8891 40.3338C42.3308 41.7682 41.3918 42.5172 40.0721 42.5807C39.6154 42.6061 39.2854 42.7331 39.0824 42.9615C38.8794 43.1774 38.7843 43.5327 38.7969 44.0279C38.7969 44.1675 38.7969 44.3198 38.7969 44.4848C38.8097 44.6372 38.8223 44.7895 38.835 44.9419C38.8604 45.183 38.8794 45.4305 38.8921 45.6845C38.9048 45.9256 38.8984 46.1731 38.8731 46.4271C38.8604 46.516 38.8541 46.6492 38.8541 46.8269C38.8667 46.9919 38.8541 47.1634 38.816 47.341C38.7906 47.5061 38.7208 47.6583 38.6067 47.798C38.5051 47.925 38.3401 47.9884 38.1118 47.9884C37.8834 47.9884 37.7057 47.9376 37.5788 47.8361C37.4646 47.7219 37.3758 47.5949 37.3123 47.4553C37.2617 47.303 37.2363 47.1506 37.2363 46.9983C37.2363 46.8333 37.2363 46.6936 37.2363 46.5794C37.2235 46.3255 37.2173 46.1541 37.2173 46.0653C37.2173 45.9637 37.2235 45.8938 37.2363 45.8558L37.1791 42.7711C37.1537 41.5271 37.1347 40.3212 37.1221 39.1533C37.1093 37.9727 37.0967 36.7922 37.0839 35.6116C37.0713 35.3069 37.0839 35.0467 37.1221 34.8308C37.1601 34.6151 37.2489 34.4373 37.3885 34.2977C37.5154 34.1708 37.6866 34.0946 37.9024 34.0692C38.1308 34.0312 38.4099 34.0184 38.7399 34.0312C39.4631 34.0566 40.1483 34.2596 40.7954 34.6404C41.4425 35.0086 41.9754 35.51 42.3942 36.1448ZM38.7779 39.3055C38.7525 39.6102 38.7525 39.8832 38.7779 40.1244C38.8033 40.3402 38.8414 40.5496 38.8921 40.7527C38.9556 40.9432 39.0698 41.07 39.2348 41.1336C39.3996 41.197 39.5456 41.2288 39.6725 41.2288C39.7993 41.2288 39.9199 41.2097 40.0341 41.1716C40.1483 41.1208 40.2498 41.0638 40.3386 41.0002C40.4402 40.9241 40.5354 40.8543 40.6242 40.7908C40.8906 40.6131 41.0873 40.4164 41.2141 40.2005C41.3411 39.9721 41.4235 39.7372 41.4616 39.496C41.5123 39.2549 41.5251 39.0072 41.4997 38.7534C41.4869 38.4995 41.4553 38.2456 41.4045 37.9917C41.2775 37.3824 41.0683 36.9064 40.7764 36.5637C40.4846 36.2082 40.0975 35.9607 39.6154 35.8211C39.2854 35.7449 39.057 35.7575 38.9302 35.8591C38.816 35.9607 38.7589 36.1574 38.7589 36.4494C38.7716 36.7794 38.7779 37.1095 38.7779 37.4395C38.7779 37.7696 38.7779 38.0996 38.7779 38.4297V39.3055Z" fill="white"/>
<path fill-rule="evenodd" clip-rule="evenodd" d="M65.3115 0.286981C65.1182 0.433945 64.6301 1.24744 64.2129 2.08858C63.8028 2.92984 62.949 4.53604 62.3136 5.6613L61.1637 7.70261L58.2938 7.84118C47.1429 8.38296 46.8511 8.47345 45.1922 8.98842C44.691 9.144 44.0649 9.33846 42.9765 9.59564C40.5585 10.1694 40.2289 10.3898 40.6628 11.073C41.0965 11.7561 41.7432 11.831 43.7134 11.425C43.8158 11.4039 43.9164 11.3831 44.0155 11.3626L44.0163 11.3625C46.5279 10.8434 48.0978 10.5189 54.2893 10.3496L59.9902 10.1944L59.295 12.039C58.9112 13.052 58.4675 14.4239 58.3091 15.0878L58.0213 16.2935L55.6338 16.4473C54.3213 16.5332 51.8657 16.6038 50.1776 16.6038C46.7015 16.6052 45.9799 16.3974 44.6159 14.9977C43.8789 14.2452 43.6412 14.1219 42.7665 14.0566C41.8585 13.9874 41.7612 14.0747 41.7612 14.9325C41.746 15.6068 41.673 16.2787 41.5429 16.9406L41.3232 17.998C41.0103 17.903 40.8449 17.8039 40.7412 17.7097C40.4609 17.0259 39.0894 16.4437 38.5298 16.6717C36.9242 17.3155 36.1059 17.5067 35.137 17.7334C34.4286 17.8991 33.6396 18.0836 32.4034 18.4776C31.0491 18.8989 29.6851 19.2897 28.2793 19.6513C27.9745 19.7314 27.6522 19.8326 27.3183 19.9378C26.2752 20.2658 25.1175 20.6301 24.0148 20.4926C24.4758 20.112 24.8252 19.5521 25.1759 18.9902C25.4346 18.5758 25.6939 18.1604 25.999 17.8151C26.1369 17.6721 26.3676 17.4994 26.6266 17.3057C27.3464 16.7671 28.2849 16.0646 28.061 15.3788C27.8719 14.8065 26.7595 14.1149 26.2033 13.9652C25.117 13.6684 24.5252 14.3646 23.9935 14.99C23.8773 15.1267 23.764 15.26 23.6491 15.3788C23.4958 15.5268 23.3135 15.6888 23.1165 15.8639C21.9107 16.9359 20.1555 18.4965 21.1462 20.2832C22.1182 21.9975 24.7295 22.5089 26.3132 22.5991C30.0542 22.7691 31.4507 22.1895 34.2321 21.035C34.397 20.9666 34.5668 20.8962 34.7422 20.8237C35.0176 20.7097 35.2939 20.5946 35.5703 20.4787C36.665 20.0406 37.399 19.7553 37.5801 19.7553C37.6524 19.7553 38.4102 20.2043 38.6744 20.7392C39.2779 21.9656 40.5167 22.7708 41.7959 22.7708C42.9543 22.7694 43.5605 22.1445 44.4379 20.0505C45.1762 18.289 45.1817 18.2862 46.1802 18.6494C47.8806 19.2689 50.1332 19.5169 54.0695 19.5169H57.8475L57.9977 20.1586C58.1586 20.6831 58.3896 21.1837 58.6845 21.6469C59.4009 22.7788 60.3959 23.2382 62.2358 23.2707C62.3839 23.2882 62.5347 23.2975 62.6876 23.2975C66.2486 23.0203 69.9542 22.1237 72.8158 20.6797C72.936 20.616 73.0683 20.549 73.2094 20.4788C74.0768 21.614 76.088 22.2066 77.2222 22.1804C80.7984 22.1513 84.0562 21.3392 87.0287 20.135C88.3029 23.2642 93.0653 22.7777 95.0858 22.362C96.7661 22.0088 98.2635 21.3984 99.6805 20.6777C100.368 21.375 101.499 21.8474 102.316 21.9407C105.163 22.2124 108.08 20.5693 110.262 19.3399L110.265 19.3391C110.497 19.2078 110.722 19.0814 110.937 18.9626C111.603 21.0576 113.768 21.4727 115.73 21.342C115.797 21.3392 115.865 21.3357 115.935 21.3314C116.45 21.3064 116.905 21.2432 117.291 21.1533C117.616 21.0874 117.95 21.0022 118.289 20.8936C120.516 20.1789 121.668 19.5913 121.857 19.4904C122.932 19.0968 125.304 17.694 126.198 15.2324C127.309 10.797 129.125 6.89005 131.362 4.1215C132.063 3.25342 132.13 2.94177 131.743 2.33277C131.126 1.35778 129.758 0.715585 129.029 1.05759C127.741 1.65998 123.41 10.3443 122.256 14.6332C122.045 15.4194 121.313 16.6232 120.641 17.0417C120.466 17.1509 120.27 17.2604 120.06 17.369C118.452 18.082 116.379 18.8724 114.688 19.0933C114.497 19.0956 114.3 19.1004 114.095 19.108C114.205 18.5987 114.445 18.1765 114.672 17.7763C114.887 17.3965 115.091 17.0365 115.163 16.6409C115.264 15.9791 114.866 15.4376 114.074 14.9561C113.139 14.379 112.782 14.4653 112.155 14.6165C112.063 14.6387 111.966 14.6622 111.86 14.6854C111.12 14.8568 110.2 14.7938 109.272 14.7301C108.57 14.6821 107.864 14.6336 107.225 14.6854C105.232 14.8581 103.463 15.4181 101.958 16.3098C101.429 16.6194 100.931 16.9699 100.468 17.3587L100.396 17.405C100.127 17.5774 99.8753 17.7388 99.6451 17.8525C96.8393 19.1759 93.5672 20.5299 89.9809 20.5299C90.1533 20.2931 90.217 19.9348 90.2773 19.5888C90.3174 19.3635 90.3552 19.1434 90.4237 18.9653C90.4697 18.8384 90.5288 18.7246 90.5866 18.615C90.7614 18.2826 90.9149 17.9892 90.6091 17.4922C89.7447 16.1078 87.9639 16.2879 87.1586 16.7397C83.8007 18.4919 80.1323 19.5746 76.3586 19.927C76.8773 19.0887 77.5794 18.3781 78.4124 17.8483C78.5535 17.7554 78.7198 17.6825 78.8818 17.6114C79.3482 17.4067 79.7788 17.2178 79.4691 16.6149C78.6445 14.9603 76.5519 15.2609 75.7037 15.7724C75.2243 16.0625 74.5775 16.4839 74.0141 17.0032C72.1234 18.2641 69.7054 18.9862 67.3556 19.6878L67.3529 19.6886C67.2567 19.7173 67.1607 19.746 67.0648 19.7746C66.8556 19.8352 66.6436 19.8975 66.4291 19.9606C63.2413 20.822 61.5455 20.0354 61.4084 19.9534C60.8008 19.5931 61.396 16.6398 62.7015 13.5439L64.1074 10.1999L67.1663 10.3634C75.3312 10.7986 78.7488 11.2088 79.5553 11.8518C81.0584 13.0477 82.8938 12.7526 82.2125 11.4236C81.0556 9.15783 77.3848 8.06151 70.071 7.79274L65.4825 7.62369L67.1065 4.88667C68.4233 2.65954 68.6499 2.01935 68.3092 1.48301C67.8643 0.780442 66.6463 -0.0122607 66.0317 0.000143751C65.7696 0.0271973 65.52 0.12655 65.3115 0.286981ZM104.067 18.7814C104.004 18.8294 103.941 18.8781 103.88 18.9275C105.305 18.4251 106.623 17.7776 107.919 17.0706C106.527 17.3607 105.214 17.9446 104.067 18.7814Z" fill="white"/>
<path fill-rule="evenodd" clip-rule="evenodd" d="M21.8933 14.0342C24.4363 13.1465 26.8327 11.6318 28.6645 9.98716L28.6659 9.98999C28.7372 9.92325 28.7813 9.83252 28.7896 9.73541C28.7978 9.63818 28.7697 9.54142 28.7107 9.46369C28.6516 9.38584 28.5659 9.33268 28.4698 9.31413C28.3736 9.2957 28.2742 9.3133 28.1904 9.36351C26.353 10.4625 24.3252 11.3326 22.2465 11.8637C22.3085 11.0728 22.2955 10.2769 22.1932 9.48554C21.9582 7.72825 21.3618 5.97248 20.1215 4.63505C18.7477 3.11485 16.4924 2.54661 14.5457 3.15502C12.207 3.85073 10.2576 5.95854 10.1825 8.47381C10.0879 11.786 13.172 14.4856 16.3103 14.7891C16.6763 14.8292 17.0456 14.8486 17.417 14.8491C16.8382 16.1143 16.0873 17.323 15.2839 18.442C12.8166 14.3703 9.11761 11.0353 4.72077 9.21111C3.69672 8.77778 2.63512 8.43861 1.54908 8.19808C1.17923 8.12188 0.827452 8.05395 0.436703 8.01095C0.34188 8.00197 0.246938 8.02713 0.169001 8.08195C0.0911819 8.13665 0.0355628 8.21745 0.0121816 8.30948C-0.0111996 8.40163 -0.000689845 8.49898 0.0417033 8.58404C0.0842145 8.6691 0.155777 8.7362 0.243515 8.77317C2.69818 9.98751 4.94962 11.5733 6.91765 13.474C9.46809 15.9287 11.4773 18.886 12.8174 22.1576C13.4084 23.567 15.2618 24.0825 16.5022 23.1762C16.6925 23.0357 16.8665 22.8745 17.0208 22.6952C18.1327 21.4894 19.1116 20.168 19.9407 18.754C20.7878 17.3089 21.4854 15.7037 21.8933 14.0342ZM16.3904 20.4896L16.3909 20.4904L16.4229 20.5555C16.4127 20.5333 16.4018 20.5112 16.3904 20.4896ZM18.2836 12.3647C18.4778 11.5349 18.5742 10.6911 18.5433 9.84173C18.4613 8.31728 17.8746 6.16363 16.0628 6.13043C14.5026 6.11236 13.0677 7.58695 13.514 9.15287C14.1747 11.4384 16.1477 12.2719 18.2836 12.3647Z" fill="white"/>
<path d="M29.8703 8.43196C30.0302 9.17765 30.2763 9.6502 30.9952 9.55451C31.6126 9.47276 32.1214 8.85336 32.1214 8.23385C32.1214 7.61433 31.6098 7.21385 30.9952 7.31084C30.2152 7.43417 29.7396 7.82639 29.8703 8.43196Z" fill="white"/>
<path d="M125.85 20.1132C124.943 19.7674 124.068 19.4342 125.008 18.8856C125.672 18.4978 126.768 18.1604 127.958 17.7941C129.113 17.4388 130.355 17.0563 131.378 16.574C135.775 14.5001 137.877 14.0695 139.416 14.9258C141.354 16.0036 141.048 17.2703 138.735 17.7516C137.928 17.9194 136.105 18.6239 134.683 19.3173C130.175 21.5149 128.826 21.7249 126.827 20.5399C126.568 20.3864 126.207 20.2488 125.85 20.1132Z" fill="white"/>
</svg>
